ply
format ascii 1.0
comment Exported by Aspose.3D 24.1.0
element vertex 44
property float x
property float y
property float z
property float nx
property float ny
property float nz
property float u
property float v
element face 38
property list uchar int vertex_index
end_header
-0.3125000000000002 -1 -0.3875000000000002 -0.33262429333689597 -0.3710364693793723 -0.3382823542496616 0.15104166666666666 0.41015625
-0.32500000000000007 -1 0.38750000000000007 -0.32945371947911034 -0.3708775811252277 0.32754534711046057 0.15104166666666666 0.6015625
-0.375 0 -0.4375 -0.33262429333689597 0.29563019728729434 -0.3382823542496616 0.15104166666666666 0.34635416666666663
-0.375 0 0.4375 -0.32945371947911034 0.295789085541439 0.32754534711046057 0.15104166666666666 0.15494791666666666
0.3250000000000002 -1 -0.38750000000000007 0.33289969534637925 -0.366759515494692 -0.3356239478807968 0.12630208333333331 0.41015625
0.33125000000000016 -1 0.3812500000000002 0.3360702692041649 -0.36660062724054737 0.3302037534793253 0.12630208333333331 0.6015625
0.375 0 -0.4375 0.33289969534637925 0.29990715117197464 -0.3356239478807968 0.12630208333333331 0.34635416666666663
0.375 0 0.4375 0.3360702692041649 0.30006603942611926 0.3302037534793253 0.12630208333333331 0.15494791666666666
-0.42058407371300155 -4.172322301518851 -0.34375000000000006 -0.3466100169765447 -0.3242178937258371 -0.3298595344261567 0.16796875 0.84765625
-0.41433407371300157 -4.172322301518851 0.2937500000000002 -0.34691843332760774 -0.32933040287444004 0.3366431371331001 0.16796875 0.97265625
0.10382106477565943 -4.1995844186221865 -0.33750000000000013 0.3190125504776461 -0.3585039744447359 -0.3397756629883029 0.14453125 0.84765625
0.11632106477565943 -4.1995844186221865 0.2875000000000002 0.31870413412658305 -0.3636164835933389 0.3267270085709538 0.14453125 0.97265625
-0.3038210647756595 -0.9254155813778138 -0.37499999999999994 -0.3147626603939885 0.3416818394791526 -0.3300292163947264 0.16796875 0.8059895833333333
-0.3038210647756595 -0.9254155813778138 0.37499999999999994 -0.3150710767450515 0.3365693303305496 0.33647345516453037 0.16796875 0.6809895833333333
0.3205840737130015 -0.9526776984811489 -0.37499999999999994 0.3508599070602023 0.3073957587602537 -0.3399453449568727 0.14453125 0.8059895833333333
0.3205840737130015 -0.9526776984811489 0.37499999999999994 0.3505514907091392 0.3022832496116507 0.3265573266023841 0.14453125 0.6809895833333333
-0.35098727127072965 -5.876048418378126 0.14903560529966142 -0.2957621158837329 -0.36623842596855316 0.30587224133154056 0.16796875 0.97265625
-0.3997259963665287 -4.129378057547849 0.2878695331889995 -0.2653491188899284 0.29876745007081285 0.3411709036387863 0.16796875 0.6809895833333333
0.023536839520199138 -5.897858112060795 0.08653560529966142 0.37045311266247405 -0.3714392131842164 0.307361317151754 0.14453125 0.97265625
0.09979811442440006 -4.151187751230517 0.2878695331889995 0.40086610965627867 0.29356666285514954 0.3426599794589998 0.14453125 0.6809895833333333
-0.34979811442440006 -5.848812248769483 -0.2878695331889995 -0.29466620241175595 -0.3492875604804523 -0.3510201713638771 0.16796875 0.84765625
-0.3985368395201992 -4.102141887939205 -0.3365356052996614 -0.26425320541795144 0.3157183155589136 -0.3157215090566314 0.16796875 0.8059895833333333
0.024725996366528696 -5.870621942452151 -0.2253695331889995 0.371549026134451 -0.3544883476961156 -0.3495310955436637 0.14453125 0.84765625
0.10098727127072965 -4.123951581621874 -0.3365356052996614 0.4019620231282556 0.3105175283432503 -0.3142324332364179 0.14453125 0.8059895833333333
0.19998927278772072 -6.2259085989562415 0.42028688975487494 0.13081556443506176 -0.6298033166087046 0.054545756466855 0.642578125 0.68359375
-0.5887745800740332 -6.071684362607473 -0.43356700251318564 -0.07260685241277257 -0.13442355851554766 -0.15240122209561224 0.7526041666666666 0.3515625
-0.2728420261334189 -5.703887980817413 0.7134699162050813 -0.2871703476459335 -0.11672578250265737 0.3131723020397101 0.7526041666666666 0.15234375
0.43230296376719046 -5.743809235074011 0.10976627477441492 0.3497702605616693 -0.08884447793281683 -0.4129906568189172 0.5325520833333333 0.3515625
1.604324369652542 -5.1922098225448625 1.377543921778815 0.13520676532850845 -0.07114670191992656 0.05258286731640508 0.5325520833333333 0.15234375
1.4804795807161226 -5.1922098225448625 -1.656851330744328 0.08060054349344514 -0.07114670191992545 -0.1206208096241039 0.5325520833333333 0.15234375
-0.010918534587188555 -5.743809235074011 -0.7870088163963598 -0.3274969890671514 -0.08884447793281527 -0.43086684711758727 0.5325520833333333 0.3515625
0.2419596163585273 -6.2259085989562415 -0.4929929254676185 0.08156647450734628 -0.6298033166087029 -0.11590885075544397 0.642578125 0.68359375
-0.7623742731283186 -6.071684362607473 0.09226626783979919 -0.16450370371762638 -0.1344235585155467 0.03790011842606659 0.7526041666666666 0.3515625
0.42585361064085814 -5.703887980817413 0.032086804768508004 0.2435938288429702 -0.11672578250265686 0.34814615591955 0.7526041666666666 0.15234375
-0.08317563034746256 -6.07840086455515 0.07397842494573503 0.160266405965822 -0.1130744635398297 0.02280137942665298 0.5325520833333333 0.15234375
-0.5676970362328095 -5.516352298935585 -0.8142014846599754 0.3839281968775642 0.21775814596300838 -0.29729447179945834 0.5325520833333333 0.3515625
-0.8000107272122792 -6.070993720309594 -0.9598577329973303 0.14961029491304614 -0.48538452251815545 -0.39769031297719115 0.642578125 0.68359375
-1.5887745800740332 -5.3372742127390085 -1.4230070271013515 -0.07260685241277272 0.02154672734730711 -0.20206821650333778 0.7526041666666666 0.3515625
-1.2728420261334188 -5.934478903460667 -0.37691218018707895 -0.29626864332451486 -0.309285882155531 0.11802763472277351 0.7526041666666666 0.15234375
-0.9271012217059744 -5.703887980817413 -0.2666764639841287 -0.2730098175851454 -0.11672578250265644 -0.3255907536065231 0.7526041666666666 0.15234375
-1.8305133639093496 -5.1922098225448625 1.5077514617615941 -0.06978103783787055 -0.07114670191992514 0.12718661126110223 0.5325520833333333 0.15234375
-0.6981432857005341 -6.2259085989562415 0.24037776169403413 -0.0711539674676358 -0.6298033166087026 0.12257676925347635 0.642578125 0.68359375
0.2513601104275186 -6.071684362607473 -0.43018780979313664 0.16057450448830696 -0.13442355851554655 -0.05209333951534726 0.7526041666666666 0.3515625
-0.42060223911165917 -5.743809235074011 0.5112350503216387 0.36380328423558184 -0.08884447793281525 0.4006840253522781 0.5325520833333333 0.3515625
4 1 0 2 3
4 6 4 5 7
4 4 0 1 5
4 3 2 6 7
4 2 0 4 6
4 5 1 3 7
4 9 8 12 13
4 14 10 11 15
4 10 8 9 11
4 13 12 14 15
4 12 8 10 14
4 11 9 13 15
4 16 20 21 17
4 23 22 18 19
4 22 20 16 18
4 17 21 23 19
4 21 20 22 23
4 18 16 17 19
4 26 25 27 28
3 25 26 24
3 27 25 24
3 26 28 24
3 28 27 24
4 33 32 30 29
3 32 33 31
3 30 32 31
3 33 29 31
3 29 30 31
4 38 37 35 34
3 37 38 36
3 35 37 36
3 38 34 36
3 34 35 36
4 39 42 43 40
3 42 39 41
3 43 42 41
3 39 40 41
3 40 43 41
