ply
format ascii 1.0
comment Exported by Aspose.3D 24.1.0
element vertex 249
property float x
property float y
property float z
property float nx
property float ny
property float nz
property float u
property float v
element face 233
property list uchar int vertex_index
end_header
-2.2063514210080015E-15 -0.05905950221071891 -0.191980710177409 -1 -3.973625526135666E-15 1.1031856485399018E-16 0.2109375 0.01953125
-1.9295546063724522E-15 -0.12724925122093605 -0.13965687545835778 -1 -3.973625526135666E-15 1.1031856485399018E-16 0.98828125 0.40234375
-2.0459979196973954E-15 -0.1009118504550684 -0.24652375232243134 -1 -3.973625526135666E-15 1.1031856485399018E-16 0.68359375 0.05078125
-1.6381210624083486E-15 -0.20334442984702608 -0.23882604299476215 -1 -3.973625526135666E-15 1.1031856485399018E-16 0.5390625 0.30078125
-2.0678988035816026E-15 -0.09315437671582748 -0.1658187928178834 -1 -3.973625526135666E-15 1.1031856485399018E-16 0.599609375 0.220703125
-1.8419510708356235E-15 -0.15212814015104723 -0.24267489765859676 -1 -3.973625526135666E-15 1.1031856485399018E-16 0.611328125 0.17578125
-1.954924937208613E-15 -0.12264125843343736 -0.20424684523824008 -1 -3.973625526135666E-15 1.1031856485399018E-16 0.6123046875 0.1796875
-1.7423128911842056E-15 -0.1755253028855136 -0.1813928840187023 -1 -3.973625526135666E-15 1.1031856485399018E-16 0.6875 0.337890625
-2.126120460244074E-15 -0.07998567633289363 -0.21925223124992016 -1 -3.973625526135666E-15 1.1031856485399018E-16 0.537109375 0.01171875
-1.8984380040221183E-15 -0.13738469929224228 -0.2234608714484184 -1 -3.973625526135666E-15 1.1031856485399018E-16 0.6748046875 0.1572265625
-1.6694545051931797E-15 -0.19454909754203614 -0.2061851759028034 -1 -3.973625526135666E-15 1.1031856485399018E-16 0.525390625 0.287109375
-2.086113400079359E-15 -0.090448763393981 -0.23288799178617575 -1 -3.973625526135666E-15 1.1031856485399018E-16 0.82421875 0.02734375
-2.070500888795568E-15 0.06477153278634136 0.02736038525960942 0.006801146617480775 0.9783080814487868 0.03445295890903317 0.2801413608176904 0.30589914550377945
-2.0836197350826424E-15 -0.1241575240498787 -0.050959137322304976 2.986343009712259E-15 -0.9775627149048874 -0.03173733638095382 0.05203050306613877 0.3070129579043036
-0.005233282139850972 -0.11129666241153348 -0.20666822301327128 -0.005609842140035002 -0.9874783071764108 -0.12982943360380367 0.042745301182428315 0.42793443749521215
-0.009669844513728657 -0.08528952241520958 -0.34999141900128383 -0.10634897585394101 -0.929693351203609 -0.23934271942424698 0.05809776885380605 0.5957884397669675
-0.006384260717750162 -0.0641519091421775 -0.414870259783363 -0.3431642685765655 -0.5501858088871431 -0.5111553292734266 0.21497319079128813 0.6221841633103885
-0.0011752252573531841 -0.02405892040284352 -0.43028287174983293 -0.4366165515731809 -0.04309544993253422 -0.7168296815522258 0.34450527388515684 0.5386972413897841
-0.006384260717750157 0.014010274580615767 -0.38246854765056065 -0.34637619501694106 0.7657472809047114 -0.3519184705603308 0.4510865421932062 0.3887671442432089
-0.009669844513728591 0.04425998597008064 -0.278706584891733 -0.22064372706355098 0.9239897332855573 -0.18317084898640065 0.4165624592439403 0.1732313392540783
-0.005233282139850962 0.06208496942082188 -0.13479380169884672 -0.11257726554828772 0.9802397789536635 -0.06442929609348083 0.2752214411490979 0.18485613779588947
-0.014903126653577778 -0.11207113475243063 -0.18247232210170494 -0.10002110010013877 -0.9810623320966132 -0.10928359396779042 0.034568658603167254 0.4093946860700126
-0.027537387371326126 -0.09663747745735195 -0.2976737058929402 -0.35710864577119006 -0.8228434873617796 -0.18423254823642748 0.09976906459721198 0.6408197111465161
-0.03597933048882849 -0.06602165077125408 -0.356456187648824 -0.7967028989145638 -0.3839627173871736 -0.2805978909645994 0.10617443398930354 0.7540406312343955
-0.038943746692850105 -0.026082714158718212 -0.3670559356840906 -0.9209229297987589 0.018568533208425955 -0.31990150075150886 0.07675419457817274 0.7238596759105527
-0.03597933048882848 0.01214053295153908 -0.3240544755160216 -0.7897087578597446 0.5146394653792401 -0.219361188438208 0.2983610818580032 0.6392824371906389
-0.0275373873713261 0.0428289476815788 -0.23399838964599834 -0.5645276259617658 0.7840731621490744 -0.12825222685182686 0.38519126120949104 0.32819583845913725
-0.014903126653577771 0.06131049707992482 -0.11059790078728045 -0.30370556846130026 0.9333196478638992 -0.046756515879708985 0.26267950335823176 0.20351731641754967
-0.022304105231477227 -0.11350217304093257 -0.1377641268559703 -0.23068023898498594 -0.9691502475829672 -0.06939018687918375 0.11234680297600491 0.4821139010222571
-0.04121261262867767 -0.10424014980414605 -0.2112589739155304 -0.5470997065423383 -0.7195024610939758 -0.09825709234705511 0.21036993781836968 0.6936782321821443
-0.05384687334642606 -0.06947648281563062 -0.24852105633734703 -0.9283862682151318 -0.2924327204427233 -0.11699864437837634 0.2252471836339572 0.7526712339268133
-0.05828343572030378 -0.029822197416871463 -0.2502277914150128 -0.9779765090290874 0.045401782237808476 -0.11256901577827629 0.205655681116472 0.722322708405194
-0.05384687334642605 0.008685700907162613 -0.2161193442045447 -0.9118737637341736 0.35803767950951265 -0.0940561871357965 0.22421708349105468 0.6916641992189514
-0.041212612628677654 0.04018473371160501 -0.15138841659989302 -0.7342478513604596 0.6466651981195592 -0.06299446547473986 0.29619011248294125 0.5265778115688214
-0.022304105231477214 0.05987945879142291 -0.06588970554154572 -0.42506073286424506 0.877479304900363 -0.019593050008837598 0.31345517134214484 0.3233120940026184
-0.02630948597510198 -0.11537191467000918 -0.07935005472143122 -0.28188296279559294 -0.9585076721797661 -0.04002410315838801 0.22695174349393055 0.566345041451076
-0.04861359120657716 -0.1076949818485225 -0.10332384260405336 -0.5987615454042533 -0.6827865402688164 -0.04217458232843125 0.3989190237570295 0.7793779849555009
-0.06351671786015296 -0.0739904384146811 -0.10749701115670267 -0.9511678423287899 -0.2654292896188495 -0.041055685550595085 0.3796214000726461 0.7519861332775386
-0.06875000000000199 -0.034708067749749896 -0.09758446485780103 -0.9893559251769902 0.01359382401994378 -0.03341523413158131 0.3727502763103318 0.7215818716821916
-0.06351671786015296 0.004171745308112221 -0.07509529902390027 -0.9448614053430233 0.28946485598873994 -0.02286198108518226 0.37934285767963705 0.6911483801023914
-0.048613591206577156 0.03672990166722859 -0.04345328528841596 -0.7960751349831251 0.5761245958975173 -0.008325940992314672 0.45805276414510665 0.6339543288191176
-0.026309485975101972 0.058009717162346236 -0.0074756334070067085 -0.48283608546366197 0.8419417501199644 0.010908759926089143 0.4006526482222177 0.4320704373286956
-0.026309485975102034 -0.1173957084258838 -0.016123118655688943 -0.2800576850752113 -0.9596170375309157 -0.02149717793741776 0.26272360613977547 0.5422976481918012
-0.048613591206577274 -0.11143446510667579 0.013504301665024771 -0.5932967345946781 -0.6937998833084672 -0.00226247701901436 0.5271547005937809 0.7793779849555009
-0.0635167178601531 -0.07887630874755945 0.04514631540050901 -0.9448614053430235 -0.2894648559887397 0.022861981085180578 0.5464523242781644 0.7519861332775387
-0.06875000000000214 -0.039996495689697376 0.06763548123440978 -0.9893559251769903 -0.013593824019944571 0.03341523413157947 0.5533234480404786 0.7215818716821916
-0.06351671786015309 -0.000714125024766199 0.07754802753331133 -0.95116784232879 0.26542928961884943 0.041055685550593274 0.5467308666711734 0.6911483801023913
-0.048613591206577274 0.032990418409075274 0.07337485898066205 -0.8049747249286996 0.5608562598143262 0.04532912540656549 0.5865440988127305 0.6339543288191176
-0.026309485975102027 0.05598592340647168 0.05575130265873564 -0.48809614232004217 0.8365773917252748 0.043178646236522664 0.4356566847735797 0.4561178305879703
-0.02230410523147739 -0.1192654500549604 0.04229095347885002 -0.2382682214024236 -0.9706371733766841 -0.004662841551730427 0.1642910263903571 0.379381378491223
-0.04121261262867798 -0.1148892971510522 0.12143943297650156 -0.4717338248943704 -0.7998652023014506 0.08273538764963144 0.4858304780835345 0.6300298719500927
-0.053846873346426474 -0.08339026434660984 0.18617036058115338 -0.7939777016605356 -0.4709893234569636 0.2032727383365686 0.7008265407168531 0.7526712339268133
-0.05828343572030424 -0.0448823660225757 0.22027880779162134 -0.9083718029986326 -0.09800362045769523 0.2562403230092575 0.7204180432343384 0.722322708405194
-0.05384687334642647 -0.0052280806238164945 0.21857207271395562 -0.8635778329946634 0.3351789638411405 0.24412458316879346 0.7018566408597557 0.6916641992189515
-0.04121261262867798 0.029535586364698843 0.181309990292139 -0.7508358648609791 0.36716778991790733 0.15728235820382847 0.573653763261452 0.5906024770323254
-0.022304105231477384 0.05411618177739508 0.1141653747932746 -0.4400574623154957 0.8635956647302396 0.07729457410075384 0.36368243483959123 0.4261842826094984
-0.01490312665357802 -0.1206964883434623 0.08699914872458478 -0.07551304038249894 -0.9807708609001045 0.017390923575568998 0.038412695205546715 0.2043489668128915
-0.027537387371326563 -0.11753351112102595 0.2040494060226071 -0.3725247092409797 -0.70016140883911 0.11713813416801071 0.37968874137390973 0.45008693530262667
-0.017229330488829096 -0.06261557455846883 0.30753092568371176 -0.770359509877403 -0.19916673717564307 0.29306845513784163 0.8198852961354812 0.7540880299876217
0.004806253307149254 -0.04862184928072885 0.3371069520606995 -0.8594315868053712 0.052685740832767614 0.2771975625602955 0.8492843755842236 0.7238573305865168
0.007770669511170917 -0.008682912668192766 0.32650720402543293 -0.8508569065729533 0.09447289285828236 0.1861620307844426 0.7921269016570733 0.6311445558504352
-0.027537387371326556 0.026891372394725152 0.26391996333824447 -0.6948832840018373 0.3187160033982471 0.16108129670164378 0.46784845019573895 0.5163420944510234
-0.014903126653578014 0.052685143488893194 0.15887357003900937 -0.32322334190356705 0.9177289132402598 0.11152644212656584 0.2660922727870931 0.40866933365963326
-0.0052332821398512735 -0.12147096068435946 0.1111950496361512 0.066623149040026 -0.9880253165435475 0.038074000512717324 0.04728157314223633 0.1859640186472259
-0.02216984451372915 -0.1138583586842246 0.2508743451219071 -0.15335443883752248 -0.7482912296729668 0.09320614338527512 0.22918953186786667 0.25850789512899935
-0.012634260717750874 -0.10353490914658944 0.3305952682187937 -0.4449230091082249 -0.37894064795390725 0.11414282253057051 0.5536366653168233 0.4726110644206135
-0.0011752252573540107 -0.11663426597299678 0.42346943306274265 -0.4447299146102423 0.010852536774189375 0.23805404118543133 0.6888278581607874 0.5373909240417395
-0.0001342607177510103 0.022938081221310802 0.4279660194877165 -0.4621267114554253 -0.00433365560033383 0.14390242070179476 0.6103125666413354 0.5185512487146133
-0.0034198445137291304 0.021655575174918618 0.3036697002071589 -0.34331096154867763 0.7259423187773527 0.12645922356484227 0.37242231375892404 0.5000577791169165
-0.005233282139851262 0.05191067114799608 0.18306947095057577 -0.122358366395684 0.9667359337364112 0.14551887623922827 0.275392417897301 0.4269479838403363
0.00523328213984681 -0.12147096068435942 0.1111950496361512 0.00039461397246921825 -0.9851771987591207 0.04452282385840481 0.05677949493024543 0.18596290876448723
0.009669844513724438 -0.10875216795892137 0.25299108897547223 0.14352216855069158 -0.9150304302843459 0.09624837743180675 0.0790055114195607 0.3078323260172309
0.012634260717746024 -0.10353490914658933 0.3305952682187937 0.3820961876092442 -0.5593473275787471 0.09056610401927753 0.14080051571482347 0.5713361887987229
0.0011752252573489982 -0.11663426597299673 0.4234694330627427 0.447159816155589 -0.02827304872662616 0.33009507735983323 0.24200525349420604 0.6360422962296681
0.00013426071774588929 0.022938081221310802 0.4279660194877165 0.48416673776136654 0.0924193248952525 0.2628947246688433 0.4290980964462071 0.6073357376309835
0.009669844513724466 0.021655575174918673 0.3036697002071589 0.3242550031839051 0.8452490887144072 0.17020469920282724 0.455042978391208 0.5395108074500757
0.005233282139846823 0.051910671147996135 0.18306947095057577 0.14952153249410888 0.9511578451707394 0.1558759526246089 0.2848902966592022 0.4269479838403363
0.014903126653573611 -0.1206964883434622 0.08699914872458493 0.18086048779996847 -0.9823573988052352 0.01653064879460392 0.0660796426309888 0.2042407405537125
0.027537387371321928 -0.11753351112102588 0.20404940602260707 0.326724373411082 -0.8696646858122319 0.10512107386715298 0.13262084132095975 0.5484584590121596
0.029729330488824323 -0.08684509639098614 0.2941054918926306 0.6889240525908865 -0.3415095880468312 0.26873720353295966 0.10561143365984826 0.9515382787438407
0.013943746692845937 -0.04862184928072899 0.3371069520606997 0.9353963727316491 0.06576920390373334 0.32886142344117614 0.07621235421110595 0.9213075793427358
0.010979330488824327 -0.008682912668192988 0.3265072040254329 0.9639163448312755 -0.0040910618513755985 0.22242419553503848 0.3080239509498853 0.8187222921688431
0.027537387371321942 0.02689137239472511 0.2639199633382445 0.5563060435895669 0.7166686594695197 0.18747553951094026 0.45216473513443195 0.6048430339969618
0.014903126653573628 0.05268514348889322 0.15887357003900943 0.23283662083580006 0.9314701928988989 0.13227007675564406 0.2937591745958918 0.40856303567467056
0.022304105231473054 -0.11926545005496024 0.04229095347885016 0.23826822140242637 -0.9706371733766834 -0.004662841551730204 0.14605698705452733 0.42860345621295426
0.041212612628673505 -0.11488929715105213 0.12143943297650162 0.5489349587235076 -0.7345206160736355 0.051041853087088127 0.2339808599536482 0.777740434894327
0.0538468733464219 -0.08339026434660973 0.1861703605811535 0.9076004596123134 -0.29491004928276937 0.15727749431019877 0.22467018907847636 0.9501214826830322
0.05828343572029963 -0.04488236602257552 0.2202788077916213 0.9572562594673304 0.024060107425051182 0.21151905409359353 0.20507868656099112 0.9197729571614128
0.05384687334642191 -0.005228080623816397 0.21857207271395573 0.9447351687408145 0.17535062533804346 0.1996994885768996 0.2236400889355738 0.8891144479751704
0.04121261262867351 0.029535586364698968 0.18130999029213904 0.7453865679581768 0.6214154414909179 0.13049575366384822 0.3202717488279979 0.6692062713033606
0.022304105231473074 0.054116181777395106 0.1141653747932746 0.44005746231549414 0.8635956647302402 0.07729457410075515 0.346381541848266 0.4062995916580307
0.02630948597509781 -0.11739570842588362 -0.01612311865568881 0.2800576850752138 -0.9596170375309149 -0.021497177937417067 0.2520552712810762 0.6410227725699107
0.04861359120657299 -0.11143446510667565 0.013504301665024806 0.5932967345946778 -0.6937998833084672 -0.002262477019013477 0.39834202920154865 0.9768282337117198
0.0635167178601488 -0.07887630874755922 0.0451463154005092 0.9448614053430235 -0.28946485598873994 0.022861981085182226 0.37904440551716523 0.9494363820337576
0.06874999999999783 -0.039996495689697195 0.0676354812344099 0.9893559251769902 -0.01359382401994437 0.03341523413158135 0.372173281754851 0.9190321204384104
0.06351671786014881 -0.0007141250247659561 0.07754802753331151 0.9511678423287899 0.26542928961884854 0.04105568555059496 0.37876586312415617 0.8885986288586102
0.048613591206573006 0.03299041840907537 0.07337485898066211 0.8049747249286991 0.5608562598143263 0.045329125406567 0.45776426686736627 0.6931894034459833
0.02630948597509783 0.055985923406471794 0.05575130265873571 0.4880961423200397 0.8365773917252755 0.04317864623652369 0.4260446732871038 0.41662778083672647
0.026309485975097864 -0.11537191467000904 -0.07935005472143115 0.28188296279559466 -0.9585076721797656 -0.040024103158387364 0.2878271339269211 0.6650701658291853
0.04861359120657311 -0.10769498184852236 -0.10332384260405347 0.598761545404253 -0.6827865402688165 -0.04217458232842994 0.5265777060383 0.9768282337117199
0.06351671786014894 -0.0739904384146809 -0.10749701115670274 0.9511678423287899 -0.2654292896188499 -0.04105568555059316 0.5458753297226835 0.9494363820337577
0.068749999999998 -0.03470806774974967 -0.0975844648578011 0.9893559251769903 0.013593824019943551 -0.033415234131579416 0.5527464534849977 0.9190321204384104
0.06351671786014894 0.004171745308112412 -0.07509529902390033 0.9448614053430235 0.2894648559887393 -0.022861981085180578 0.5461538721156924 0.8885986288586103
0.04861359120657313 0.036729901667228705 -0.04345328528841605 0.796075134983125 0.576124595897517 -0.008325940992313484 0.58625560153499 0.6931894034459833
0.026309485975097885 0.05800971716234629 -0.007475633407006743 0.4828360854636604 0.8419417501199651 0.010908759926089459 0.46104870983846585 0.39258038757745184
0.022304105231473224 -0.11350217304093241 -0.13776412685597017 0.21132883415716525 -0.9719984238556162 -0.06657838542450348 0.19707314825760783 0.5314764632113119
0.04121261262867382 -0.10424014980414589 -0.21125897391553025 0.534392597415875 -0.7109688620163903 -0.09618087267224507 0.5097678657897209 0.8417659187493085
0.05384687334642232 -0.06947648281563053 -0.24852105633734692 0.9350305639164922 -0.28105094509248846 -0.11773422615824544 0.7002495461613724 0.9501214826830322
0.058283435720300085 -0.02982219741687135 -0.2502277914150125 0.9779765090290874 0.04540178223780895 -0.11256901577827441 0.7198410486788576 0.9197729571614128
0.053846873346422325 0.00868570090716271 -0.21611934420454465 0.9118737637341736 0.3580376795095126 -0.09405618713579492 0.7012796463042748 0.8891144479751705
0.04121261262867384 0.04018473371160517 -0.15138841659989288 0.7342478513604584 0.6466651981195601 -0.06299446547473841 0.5974089314450653 0.6055579110713091
0.022304105231473245 0.05987945879142294 -0.06588970554154575 0.4250607328642433 0.8774793049003641 -0.019593050008836693 0.39753686496644847 0.3035670691269965
0.014903126653573861 -0.11207113475243055 -0.1824723221017049 0.05927981762631455 -0.9822288003956616 -0.09880195225831519 0.06949244218627904 0.40939497413254955
0.02753738737132238 -0.09663747745735192 -0.29767370589294023 0.3360223607602192 -0.8011713152451844 -0.1807115507885686 0.2536220198094102 0.6174907598013212
0.03597933048882492 -0.0660216507712541 -0.35645618764882403 0.8125614950124365 -0.3888021940439071 -0.28617669275111984 0.6443964853946871 0.8530717954775225
0.03894374669284658 -0.026082714158718073 -0.3670559356840906 0.8957075173201209 0.0996251714174072 -0.29614904694891686 0.8487071368445908 0.9213073087496421
0.03597933048882493 0.012140532951539135 -0.32405447551602173 0.7702392401562901 0.5393678976361502 -0.2122889920126345 0.7376082074015632 0.7795801355516707
0.027537387371322414 0.04282894768157887 -0.23399838964599837 0.5745889183285049 0.7754463296380906 -0.1331591253375331 0.44376245305602513 0.38295489413937034
0.014903126653573878 0.06131049707992485 -0.11059790078728039 0.30370556846130015 0.9333196478638994 -0.046756515879708194 0.29760321119827143 0.20351731641754967
0.00523328213984711 -0.11129666241153348 -0.20666822301327126 -0.01578003550596846 -0.9857965992028104 -0.12215959334900868 0.05695050439541306 0.4280561527542096
0.009669844513724934 -0.08528952241520958 -0.3499914190012838 0.09796979996943457 -0.9165547781645997 -0.23789794165119751 0.06551949328924461 0.5317055051430721
0.006384260717746733 -0.06415190914217744 -0.414870259783363 0.35237856897308034 -0.5664070608941116 -0.5159985492800768 0.44277058801232494 0.6329414477497541
0.0011752252573498203 -0.02405892040284352 -0.43028287174983293 0.41140113909455 0.03796118827644614 -0.6930772277496348 0.806200294422149 0.635332472770488
0.006384260717746738 0.014010274580615822 -0.38246854765056065 0.32690667731348316 0.7904757131616216 -0.344846274134758 0.5902391741201999 0.4081633002100161
0.009669844513725004 0.044259985970080726 -0.278706584891733 0.2307050194302869 0.9153629007745728 -0.1880777474721076 0.3350855316407916 0.1628516640847205
0.005233282139847123 0.06208496942082192 -0.13479380169884672 0.11257726554828427 0.9802397789536633 -0.06442929609348058 0.2894265686190104 0.18497756499234996
0.0037797429875482797 -0.005024322911113849 -0.4063757097001969 -0.06082051052942433 0.07819543715511718 -0.0013725722987456834 0.7677818498156704 0.6257806552037131
-0.0037797429875516698 -0.0050243229111138765 -0.4063757097001969 -0.16952275515138193 0.35984776882232716 -0.14485118685188547 0.32448980585055487 0.5303906484366341
-0.0374615385908393 -0.006971090603589553 -0.34555520560005626 -0.648523174695915 0.4866689905340426 -0.17706105994496313 0.08891789065268133 0.7078025291188137
-0.056065154533364914 -0.010568248254854418 -0.23317356780977883 -0.9708885787917972 0.20612308418705597 -0.10642404820768515 0.21493638230376333 0.7069934538120727
-0.06613335893007748 -0.01526816122081882 -0.08633988194085067 -0.9875739536207389 0.1496672461390401 -0.028937552522573323 0.37604656699498445 0.7063651258922914
-0.06613335893007764 -0.02035531035723176 0.07259175438386054 -0.9911378967332413 0.12247959809915249 0.03789291574058742 0.550027157355826 0.7063651258922915
-0.05606515453336536 -0.025055223323196124 0.21942544025278843 -0.926072355883571 0.13392100287322617 0.2772592650647969 0.7111373420470471 0.7069934538120728
0.006288461409160085 -0.028652380974460795 0.3318070780430662 -0.9255851014477465 0.11538106427147048 0.18429803737601558 0.8362052125518531 0.7080525209017603
-0.0006547429875524272 -0.033582542185647296 0.38928861595671527 -0.49496484792393847 -0.24095674315395404 0.3574934260523526 0.7097084545336326 0.5293293330627771
0.0006547429875475273 -0.033582542185647296 0.38928861595671527 0.48578836746180964 -0.27785900461876456 0.5322880154664137 0.2773885939880951 0.6279125822267773
0.012461538590835142 -0.028652380974460934 0.33180707804306636 0.952281549530017 0.07831301639430308 0.2706759997267224 0.0892915172434764 0.9055027696579792
0.056065154533360764 -0.02505522332319593 0.21942544025278848 0.9559637508022654 0.1279435146166676 0.21677421151894122 0.21435938774828245 0.9044437025682917
0.0661333589300733 -0.020355310357231565 0.07259175438386062 0.9911378967332414 0.12247959809915072 0.03789291574058922 0.37546957243950363 0.9038153746485103
0.06613335893007348 -0.015268161220818602 -0.08633988194085074 0.9875739536207391 0.14966724613903895 -0.02893755252257149 0.5494501628003452 0.9038153746485103
0.05606515453336121 -0.01056824825485432 -0.23317356780977858 0.9708885787917976 0.20612308418705558 -0.10642404820768345 0.7105603474915663 0.9044437025682917
0.03746153859083576 -0.006971090603589469 -0.3455552056000562 0.4181799090151138 0.20501665886683235 -0.03358244539182261 0.8347587614149301 0.9058503921989567
0.00247748412244906 -0.009103096898753327 -0.4265952563699031 0.34116723524258075 0.6234092434376284 -0.4319272922890155 0.7728168187036717 0.6344257218838902
-0.002477484122452417 -0.009103096898753382 -0.42659525636990314 -0.4247735685559886 0.430279450510742 -0.49481856119451706 0.320313133114718 0.5394802011321146
-0.0382026426418447 -0.016526902381153702 -0.35630557064207335 -0.9037739881005242 0.24732958897392884 -0.2780425811436849 0.08281846552122002 0.7158322751767011
-0.05717429512683435 -0.02019522283586292 -0.24170067961239577 -0.9708885787917976 0.20612308418705427 -0.10642404820768527 0.21029603171011768 0.7146580811086334
-0.06744167946503973 -0.024988114485284273 -0.09196217339932578 -0.987573953620739 0.1496672461390389 -0.0289375525225734 0.37439842165265813 0.7139734987872415
-0.06744167946503989 -0.03017590302346454 0.07011361780913514 -0.9911378967332415 0.12247959809915024 0.0378929157405874 0.5516753026981522 0.7139734987872415
-0.0571742951268348 -0.03496879467288591 0.2198521240222049 -0.9274916018953564 0.13397006298528485 0.2747098771563778 0.7157776926406927 0.7146580811086334
0.005547357358154669 -0.03863711512759471 0.33445701505188297 -0.9264219957171057 0.11394525674767078 0.17631666172096827 0.8427447940680384 0.7159549257441387
-0.0009149841224531895 -0.04327345533755869 0.3827590594498793 -0.4943824961815133 0.018559792380632392 0.3633291968700814 0.7134527892364939 0.5382230459689895
0.0009149841224482926 -0.04327345533755869 0.3827590594498793 0.47752108255376347 -0.03739044654420336 0.5709750025797035 0.2738811043581424 0.6368034805498635
0.01320264264184054 -0.038637115127594907 0.33445701505188297 0.9479810825995425 0.05947056594515733 0.2909676863615666 0.08275193572729118 0.9134051745003574
0.05717429512683019 -0.0349687946728858 0.219852124022205 0.9567212089617898 0.127538085804332 0.21503475348490916 0.2097190371546368 0.9121083298648522
0.06744167946503557 -0.030175903023464318 0.07011361780913536 0.9911378967332415 0.12247959809915056 0.037892915740589256 0.37382142709717725 0.9114237475434603
0.06744167946503574 -0.024988114485284093 -0.09196217339932582 0.9875739536207392 0.14966724613903828 -0.02893755252257152 0.5510983081426715 0.9114237475434603
0.05717429512683064 -0.02019522283586281 -0.2417006796123955 0.9708885787917977 0.20612308418705444 -0.1064240482076835 0.7152006980852118 0.9121083298648522
0.03820264264184117 -0.01652690238115373 -0.3563055706420734 0.8201676547871168 0.44045938190081607 -0.21515131223818243 0.8417328270376845 0.9135787151777526
-0.0050820018526509005 -0.005220904566472617 -0.4142296806301894 -0.1681559434810471 0.3299787799514421 -0.22618933560260318 0.32866647858639186 0.5213010957411537
0.005082001852647522 -0.005220904566472562 -0.4142296806301894 -0.009408225336715703 -0.019966989615369912 -0.12106608068760345 0.7627468809276692 0.6171355885235359
0.036720434539830336 0.002584721173974791 -0.33480484055803894 0.46959219420782006 0.13806466457526742 -0.07322441550694762 0.8277846957921758 0.898122069220161
0.05495601393989177 -0.0009412736738458327 -0.22464645600716165 0.9708885787917976 0.206123084187055 -0.10642404820768352 0.7059199968979205 0.8967790752717311
0.0648250383951112 -0.005548207956353208 -0.08071759048237559 0.987573953620739 0.14966724613903867 -0.028937552522571505 0.5478020174580188 0.8962070017535602
0.06482503839511107 -0.010534717690998834 0.07506989095858604 0.9911378967332415 0.1224795980991496 0.03789291574058914 0.37711771778182984 0.8962070017535603
0.05495601393989133 -0.01514165197350624 0.2189987564833721 0.9552713282843636 0.12794205377719414 0.21854018397938763 0.21899973834192812 0.8967790752717311
0.011720434539829728 -0.018667646821326933 0.32915714103424953 0.9529511290615308 0.05193374300331265 0.25776115877949984 0.09583109875966161 0.8976003648156008
0.000394501852646762 -0.0238916290337359 0.3958181724635512 0.4840055644902928 -0.3229379650230713 0.5223085544710306 0.28089608361804785 0.6190216839036911
-0.000394501852651665 -0.0238916290337359 0.3958181724635512 -0.4961896250206791 -0.25056667946116135 0.3605760148174268 0.7059641198307713 0.5204356201565646
0.007029565460165502 -0.018667646821326878 0.32915714103424953 -0.9252974891099385 0.10811090449385616 0.19107586942620391 0.8296656310356678 0.7001501160593819
-0.05495601393989592 -0.015141651973506434 0.21899875648337205 -0.9245599664490223 0.1344653907925656 0.27973343956994057 0.7064969914534014 0.6993288265155121
-0.06482503839511534 -0.010534717690999028 0.07506989095858597 -0.9911378967332414 0.12247959809915218 0.037892915740587355 0.5483790120134997 0.6987567529973414
-0.06482503839511522 -0.005548207956353413 -0.08071759048237552 -0.9875739536207391 0.1496672461390394 -0.02893755252257331 0.3776947123373108 0.6987567529973415
-0.054956013939895486 -0.0009412736738459437 -0.22464645600716174 -0.9708885787917974 0.2061230841870552 -0.10642404820768518 0.219576732897409 0.699328826515512
-0.03672043453983389 0.0025847211739747633 -0.334804840558039 -0.6471563630255828 0.48801043414208023 -0.178347670421948 0.09501731578414266 0.6997727830609263
-0.00034929587538898516 0.09108778013591172 -0.11560419012503828 0.9981449031469452 0.05660685006127738 -0.02241465698857496 0.6875 0.337890625
-0.0007923052783181477 0.06983036485236796 -0.18901610528681545 0.998144903146945 0.056606850061282334 -0.022414656988576972 0.6748046875 0.1572265625
-0.0017124017305557805 0.11409573019842034 -0.11819934839171493 0.9981449031469452 0.05660685006127794 -0.022414656988576597 0.525390625 0.287109375
0.0002641017594363507 0.05199920355392362 -0.18700485763014107 0.998144903146945 0.056606850061278906 -0.022414656988576684 0.6123046875 0.1796875
0.0023769158349443483 0.03844072638308019 -0.12716044791286438 0.9981449031469455 0.05660685006127393 -0.022414656988571507 0.98828125 0.40234375
0.0023769158349444294 0.016336880957034776 -0.1829823623167925 0.9981449031469456 0.05660685006127094 -0.022414656988573332 0.599609375 0.220703125
0.0008774993942612242 0.019541780599749453 -0.24165895081406397 0.9981449031469452 0.05660685006128044 -0.022414656988578415 0.537109375 0.01171875
0.0023769158349445114 -0.005766964469010302 -0.23880427672071958 0.9981449031469458 0.05660685006126795 -0.02241465698857516 0.2109375 0.01953125
0.00012779117391979733 0.03219615313412902 -0.243086287860736 0.9981449031469447 0.056606850061286726 -0.022414656988577343 0.82421875 0.02734375
-0.0018487123160722987 0.08766152615081216 -0.19102735294348971 0.9981449031469454 0.05660685006127779 -0.0224146569885739 0.611328125 0.17578125
-0.003075507585722696 0.13047252663311495 -0.1375410809795707 0.9981449031469455 0.05660685006127505 -0.022414656988574783 0.5390625 0.30078125
-0.000621917046421952 0.04485052566850921 -0.2445136249074082 0.9981449031469452 0.05660685006128052 -0.02241465698857302 0.68359375 0.05078125
-0.00034929587538884855 0.0659847899615274 0.21877611521730356 0.9981449031469452 0.05660685006127749 -0.022414656988575022 0.6875 0.337890625
-0.0007923052783180111 0.04472737467798364 0.1453642000555264 0.998144903146945 0.056606850061282445 -0.022414656988577024 0.6748046875 0.1572265625
-0.0017124017305556439 0.08899274002403601 0.21618095695062695 0.9981449031469452 0.05660685006127801 -0.022414656988576594 0.525390625 0.287109375
0.0002641017594364873 0.02689621337953925 0.14737544771220082 0.998144903146945 0.05660685006127895 -0.022414656988576705 0.6123046875 0.1796875
0.0023769158349444845 0.01333773620869591 0.20721985742947743 0.9981449031469455 0.05660685006127402 -0.0224146569885716 0.98828125 0.40234375
0.002376915834944566 -0.00876610921734955 0.15139794302554938 0.9981449031469456 0.05660685006127103 -0.02241465698857341 0.599609375 0.220703125
0.0008774993942613608 -0.0055612095746349136 0.09272135452827793 0.9981449031469452 0.05660685006128041 -0.022414656988578384 0.537109375 0.01171875
0.0023769158349446476 -0.030869954643394572 0.09557602862162226 0.9981449031469458 0.056606850061268046 -0.022414656988575213 0.2109375 0.01953125
0.00012779117391993394 0.007093162959744707 0.09129401748160587 0.9981449031469447 0.056606850061286886 -0.022414656988577454 0.82421875 0.02734375
-0.0018487123160721621 0.06255853597642783 0.14335295239885215 0.9981449031469454 0.056606850061278025 -0.022414656988574047 0.611328125 0.17578125
-0.0030755075857225598 0.10536953645873068 0.1968392243627711 0.9981449031469455 0.056606850061275055 -0.022414656988574744 0.5390625 0.30078125
-0.0006219170464218154 0.01974753549412478 0.08986668043493375 0.9981449031469452 0.056606850061281 -0.022414656988573353 0.68359375 0.05078125
0.08140290877140238 0.012514785695900643 -0.18151650835857136 0.9323220435551874 0.008299616599271531 -0.3615338482983087 0.6875 0.337890625
0.057009972275441044 0.01939697669202145 -0.24426292328588914 0.9323220435551868 0.008299616599277734 -0.3615338482983101 0.6748046875 0.1572265625
0.08438868835939829 0.037906336370109796 -0.17323388620123506 0.9323220435551866 0.008299616599272419 -0.36153384829831103 0.525390625 0.287109375
0.05469599309474454 -0.00028147508049090886 -0.2506819554578249 0.9323220435551866 0.008299616599273972 -0.3615338482983109 0.6123046875 0.1796875
0.06957827693493486 -0.038584484030901756 -0.21318289124134915 0.9323220435551883 0.00829961659926992 -0.3615338482983063 0.98828125 0.40234375
0.05006803473335036 -0.039638378625515405 -0.2635200198016962 0.9323220435551867 0.008299616599266006 -0.3615338482983106 0.599609375 0.220703125
0.033842150078561894 -0.012761567478498353 -0.30474626398897264 0.9323220435551856 0.008299616599276414 -0.36153384829831314 0.537109375 0.01171875
0.03055779253176635 -0.04069227322012875 -0.31385714836204265 0.932322043555185 0.008299616599262092 -0.3615338482983149 0.2109375 0.01953125
0.035484328851959936 0.001203785392316456 -0.3001908218024378 0.932322043555187 0.008299616599283048 -0.36153384829830926 0.82421875 0.02734375
0.0593239514561379 0.03907542846453356 -0.2378438911139535 0.9323220435551872 0.00829961659927353 -0.361533848298309 0.611328125 0.17578125
0.08152139528691828 0.06298171866593472 -0.18005240261200386 0.9323220435551866 0.008299616599271697 -0.36153384829831087 0.5390625 0.30078125
0.0371265076253576 0.015169138263131765 -0.29563537961590286 0.9323220435551879 0.00829961659927536 -0.3615338482983071 0.68359375 0.05078125
-0.057628757650297825 0.03903162078118767 -0.23874397456666357 0.9252079133554602 -0.04851444907744738 0.37634646975247044 0.611328125 0.17578125
-0.05625623873999338 0.0193272771558968 -0.24465823419535493 0.9252079133554615 -0.04851444907743978 0.3763464697524683 0.6748046875 0.1572265625
-0.08405356994723517 0.040176266870948246 -0.17363381866003524 0.9252079133554609 -0.04851444907744898 0.37634646975246844 0.525390625 0.287109375
-0.07968565943313972 0.0647503474548187 -0.1812040434936374 0.9252079133554599 -0.04851444907745513 0.37634646975246994 0.5390625 0.30078125
-0.0822825778049065 0.014751307354443917 -0.18126512140673381 0.9252079133554606 -0.04851444907744416 0.37634646975246977 0.6875 0.337890625
-0.054883719829688274 -0.00037706646939418553 -0.2505724938240462 0.9252079133554618 -0.04851444907744149 0.3763464697524671 0.6123046875 0.1796875
-0.07260169086382465 -0.036949490611197164 -0.211729254480432 0.9252079133554594 -0.048514449077445496 0.37634646975247255 0.98828125 0.40234375
-0.05213868200907941 -0.03978575371997618 -0.26240101308142916 0.925207913355461 -0.048514449077450804 0.3763464697524679 0.599609375 0.220703125
-0.03362376451089523 -0.014654561360598978 -0.30467833866105787 0.9252079133554632 -0.04851444907743882 0.37634646975246444 0.537109375 0.01171875
-0.03167567315433385 -0.042622016828754036 -0.3130727716824265 0.9252079133554627 -0.04851444907745611 0.3763464697524632 0.2109375 0.01953125
-0.03459781018917564 -0.0006708336265217746 -0.3004811221503737 0.9252079133554619 -0.048514449077430584 0.37634646975246827 0.82421875 0.02734375
-0.035571855867456446 0.013312894107555706 -0.29628390563968954 0.9252079133554604 -0.04851444907743964 0.3763464697524709 0.68359375 0.05078125
-0.003633358930077819 0.009104229863266172 0.29521358368183864 -0.8427698652996581 -0.08043967326960069 0.17628872537860624 0.7217205693295378 0.5527220989611268
-0.004902052615740038 0.014282290910126588 0.37590660689845684 -0.46409937391813233 0.37378128057320376 -0.015115675260836448 0.4959429216204916 0.49740813371121284
0.004902052615735209 0.014282290910126644 0.37590660689845684 0.4481959592018858 0.6685321583216699 0.054892437396190506 0.5962550461786829 0.5763882332137005
0.019258358930073136 0.009104229863266089 0.2952135836818388 0.8913749654271488 0.26630112772342807 0.18808147363210312 0.5530844060890499 0.7304273228417238
0.04752974298754771 0.012153752870441292 0.19994103150304743 0.8910349619823603 0.35935099402393805 0.1722636914189735 0.2505579730876174 0.8747970396630798
0.05606515453336091 0.01613814669215473 0.07546144325698678 0.9111977879243383 0.4083789811385487 0.04421845536060081 0.3882885050566561 0.8748601095770896
0.056065154533361035 0.020450823487670536 -0.059274292156158176 0.902148857065308 0.42926246583844063 -0.016786409647789644 0.5366312301831926 0.8748601095770896
0.04752974298754808 0.02443521730938393 -0.18375388040221868 0.8528589486765493 0.5099522748319717 -0.08168832606390619 0.6743617621522313 0.8747970396630799
0.03175835893007368 0.027484740316559023 -0.27902643258101006 0.6897348697065445 0.6791585317981006 -0.1755702876205493 0.6114777090976364 0.6594078627426452
0.008027052615735872 0.029135130275348253 -0.3305875662711468 0.2820701635654685 0.8756309529168147 -0.25710093242675075 0.3965711350869623 0.22612334855121563
-0.008027052615739372 0.029135130275348198 -0.3305875662711468 -0.28207016356547143 0.8756309529168151 -0.2571009324267509 0.5678988078017209 0.2652950491150597
-0.031758358930077286 0.027484740316559023 -0.27902643258100995 -0.689734869706544 0.6791585317981004 -0.1755702876205502 0.5131531903254763 0.5635804455177658
-0.04752974298755185 0.024435217309383812 -0.18375388040221885 -0.8528589486765494 0.5099522748319714 -0.08168832606390772 0.2511349676430983 0.677346790906861
-0.05606515453336507 0.020450823487670397 -0.059274292156158113 -0.9021488570653078 0.4292624658384415 -0.016786409647791198 0.388865499612137 0.6774098608208707
-0.05606515453336519 0.016138146692154576 0.07546144325698674 -0.9111977879243385 0.40837898113854854 0.04421845536059921 0.5372082247386734 0.6774098608208708
-0.04752974298755223 0.01215375287044114 0.19994103150304726 -0.8329136647760335 0.24662481507789147 0.21351162428651999 0.6749387567077121 0.677346790906861
0.012080331246958665 0.011693215130465395 0.33555939003347723 0.9027791360411818 0.2856836515180926 0.12405374756604205 0.9319352246997323 0.5853544776119403
0.012353772104769765 0.022371106826438045 0.28131521183486036 0.5344380212231137 0.7325091504830936 0.17740780981297394 0.6381352476326471 0.5396669497096979
0.010068288911109047 0.05229791408732955 0.17097130902272428 0.1814931778220255 0.9483601832505768 0.15931557088547207 0.28932481314150144 0.4177553490731367
0.005556890389147589 -0.002789435496811682 0.384845109855274 0.9781955517289629 -0.060898842150052354 0.1572759678450255 0.47833107518750945 0.7476983875837824
0.006057567184840466 -0.01995408569730367 0.36934779204686363 0.977137467627223 -0.06078933999885027 0.18388821131455824 0.060253479299320345 0.898400304919766
0.006558243980533343 -0.0297919119178206 0.3674080625265873 0.977558268549324 0.008872044346720735 0.20732741693763976 0.05345666903116916 0.9065033371595296
0.007058920776226212 -0.03962973813833756 0.36546833300631093 0.9642330585512799 -0.030097822385974467 0.2567777901554489 0.046659858763017995 0.9146063693992932
0.007559597571919074 -0.08792948948922222 0.3528445660936668 0.9189700602234113 0.12608522422844115 0.2971711133361832 0.03986304849486679 0.9227094016390567
0.024306999639093028 -0.09518985689989715 0.31235006113522634 0.6319609814791748 -0.2657507003740007 0.23199253148010296 0.07202868083568735 0.9528325685488446
0.018603772104769736 -0.1131429162888745 0.22851981974894442 0.17387513772917856 -0.9095397751747409 0.1087726317877948 0.11454987632713651 0.5415134903245341
0.010068288911109034 -0.12108371774502591 0.09909688770829975 -0.03351407163659727 -0.9705223944015802 0.06175709599429285 0.06164541520293327 0.19504591404042015
4 1 7 6 4
4 4 6 8 0
4 7 10 9 6
4 6 9 11 8
4 5 9 10 3
4 2 11 9 5
3 14 21 13
4 14 15 22 21
4 15 16 23 22
4 16 17 24 23
4 158 127 173 128
4 26 233 232 19
4 19 20 27 26
3 27 20 12
3 21 28 13
4 21 22 29 28
4 22 23 30 29
4 23 24 31 30
4 128 173 172 129
4 33 234 233 26
4 26 27 34 33
3 34 27 12
3 28 35 13
4 28 29 36 35
4 29 30 37 36
4 30 31 38 37
4 129 172 171 130
4 40 235 234 33
4 33 34 41 40
3 41 34 12
3 35 42 13
4 35 36 43 42
4 36 37 44 43
4 37 38 45 44
4 130 171 170 131
4 47 236 235 40
4 40 41 48 47
3 48 41 12
3 42 49 13
4 42 43 50 49
4 43 44 51 50
4 44 45 52 51
4 131 170 169 132
4 54 237 236 47
4 47 48 55 54
3 55 48 12
3 49 56 13
4 49 50 57 56
4 50 51 58 57
4 51 52 59 58
4 132 169 168 133
4 61 222 237 54
4 54 55 62 61
3 62 55 12
3 56 63 13
4 56 57 64 63
4 57 58 65 64
4 133 168 167 134
4 68 223 222 61
4 61 62 69 68
3 69 62 12
3 63 70 13
4 63 64 71 70
4 64 65 72 71
4 65 66 73 72
4 134 167 166 135
4 75 224 223 68
4 68 69 76 75
3 76 69 12
3 70 77 13
4 71 247 248 70
4 72 246 247 71
4 73 245 246 72
4 166 242 243 135
4 75 239 238 224
4 76 240 239 75
3 12 240 76
3 77 84 13
4 77 78 85 84
4 78 79 86 85
4 79 80 87 86
4 136 165 164 137
4 89 226 225 82
4 82 83 90 89
3 90 83 12
3 84 91 13
4 84 85 92 91
4 85 86 93 92
4 86 87 94 93
4 137 164 163 138
4 96 227 226 89
4 89 90 97 96
3 97 90 12
3 91 98 13
4 91 92 99 98
4 92 93 100 99
4 93 94 101 100
4 138 163 162 139
4 103 228 227 96
4 96 97 104 103
3 104 97 12
3 98 105 13
4 98 99 106 105
4 99 100 107 106
4 100 101 108 107
4 139 162 161 140
4 110 229 228 103
4 103 104 111 110
3 111 104 12
3 105 112 13
4 105 106 113 112
4 106 107 114 113
4 107 108 115 114
4 140 161 160 141
4 117 230 229 110
4 110 111 118 117
3 118 111 12
3 112 119 13
4 112 113 120 119
4 113 114 121 120
4 114 115 122 121
4 160 141 159 126
4 124 231 230 117
4 117 118 125 124
3 125 118 12
3 119 14 13
4 119 120 15 14
4 120 121 16 15
4 121 122 17 16
4 126 159 158 127
4 19 232 231 124
4 124 125 20 19
3 20 125 12
4 127 143 142 126
4 128 144 143 127
4 129 145 144 128
4 130 146 145 129
4 131 147 146 130
4 132 148 147 131
4 133 149 148 132
4 134 150 149 133
4 135 151 150 134
4 135 243 244 151
4 137 153 152 136
4 138 154 153 137
4 139 155 154 138
4 140 156 155 139
4 141 157 156 140
4 126 142 157 141
4 122 142 143 17
4 17 143 144 24
4 24 144 145 31
4 31 145 146 38
4 38 146 147 45
4 45 147 148 52
4 52 148 149 59
4 59 149 150 66
4 66 150 151 73
4 151 244 245 73
4 80 152 153 87
4 87 153 154 94
4 94 154 155 101
4 101 155 156 108
4 108 156 157 115
4 115 157 142 122
4 18 158 159 123
4 123 159 160 116
4 116 160 161 109
4 109 161 162 102
4 102 162 163 95
4 95 163 164 88
4 88 164 165 81
4 74 241 242 166
4 74 166 167 67
4 67 167 168 60
4 60 168 169 53
4 53 169 170 46
4 46 170 171 39
4 39 171 172 32
4 32 172 173 25
4 25 173 158 18
4 58 59 66 65
4 178 174 177 179
4 179 177 180 181
4 174 176 175 177
4 177 175 182 180
4 183 175 176 184
4 185 182 175 183
4 190 186 189 191
4 191 189 192 193
4 186 188 187 189
4 189 187 194 192
4 195 187 188 196
4 197 194 187 195
4 202 198 201 203
4 203 201 204 205
4 198 200 199 201
4 201 199 206 204
4 207 199 200 208
4 209 206 199 207
4 216 214 215 217
4 217 215 218 219
4 214 212 211 215
4 215 211 220 218
4 210 211 212 213
4 221 220 211 210
4 223 60 222 67
4 67 223 224 74
4 224 238 241 74
4 81 225 226 88
4 88 226 227 95
4 95 227 228 102
4 102 228 229 109
4 109 229 230 116
4 116 230 231 123
4 123 231 232 18
4 18 232 233 25
4 25 233 234 32
4 32 234 235 39
4 39 235 236 46
4 46 236 237 53
4 53 237 222 60
4 225 238 239 82
4 82 239 240 83
3 83 240 12
4 81 241 238 225
4 165 242 241 81
4 136 243 242 165
4 152 244 243 136
4 80 245 244 152
4 79 246 245 80
4 78 247 246 79
4 77 248 247 78
